# xmcd CD database file
#
# Track frame offsets:
#	150
#	17776
#	33832
#	54550
#	71152
#	86069
#	97532
#	150507
#	179591
#	201961
#	230327
#	248936
#	265683
#	294021
#	309714
#
# Disc length: 4383 seconds
#
# Revision: 1
# Processed by: cddbd v1.5.1PL0 Copyright (c) Steve Scherf et al.
# Submitted via: CDex 1.51
#
DISCID=c2111d0f
DTITLE=Bill Brewster - VV Easter Mix
DYEAR=2004
DGENRE=Jazz
TTITLE0=Malinga Five - Kalimbo
TTITLE1=Bullet Train - Bang Bang
TTITLE2=All Points Bulletin - Disco Funk
TTITLE3=Wally Badarou-Rebop Kwaku Baah - Theme From Countryman
TTITLE4=Poor Boys - Can't Get Back In
TTITLE5=Jackey Beavers - Mr Bump Man Pt.II
TTITLE6=Sonny Okosun - Papa's Land
TTITLE7=Tribe 2 - What I Like
TTITLE8=Weyman Corporation - Kumbayero
TTITLE9=Tasha Thomas - Stay With Me
TTITLE10=David Astri - Dancing Digits
TTITLE11=Lill Lindfors - Taget Rusar Fram
TTITLE12=Charles Earland - Intergalactic Love Song
TTITLE13=Benny Borg - Lotte Og Ole
TTITLE14=Howl The Good - Doing Harder Nothing
EXTD=YEAR: 2004
EXTT0=
EXTT1=
EXTT2=
EXTT3=
EXTT4=
EXTT5=
EXTT6=
EXTT7=
EXTT8=
EXTT9=
EXTT10=
EXTT11=
EXTT12=
EXTT13=
EXTT14=
PLAYORDER=
